<?xml version="1.0" encoding="UTF-8" standalone="no"?>
<!DOCTYPE svg PUBLIC "-//W3C//DTD SVG 1.1//EN" "http://www.w3.org/Graphics/SVG/1.1/DTD/svg11.dtd">
<svg width="100%" height="100%" viewBox="0 0 160 160" version="1.1" xmlns="http://www.w3.org/2000/svg" xmlns:xlink="http://www.w3.org/1999/xlink" xml:space="preserve" xmlns:serif="http://www.serif.com/" style="fill-rule:evenodd;clip-rule:evenodd;stroke-linecap:round;stroke-linejoin:round;stroke-miterlimit:1.5;">
    <g transform="matrix(1,0,0,1,340,-426)">
        <g id="Button-0" serif:id="Button 0">
        </g>
        <g id="Button-Cat-120x120" serif:id="Button Cat 120x120" transform="matrix(0.922127,0,0,1.05765,-1074.71,-1149.57)">
            <g transform="matrix(1.08445,0,0,0.955721,-67.2854,64.3246)">
                <rect x="796.758" y="1491.4" width="160" height="158.287"/>
            </g>
            <g transform="matrix(1.91393,0,0,1.35971,-797.066,-555.359)">
                <path d="M843.073,1526.82C843.083,1526.79 849.513,1507.51 852.729,1507.51C855.945,1507.51 862.375,1526.79 862.386,1526.82L893.77,1526.82C893.78,1526.79 900.211,1507.51 903.427,1507.51C906.643,1507.51 913.073,1526.79 913.083,1526.82L913.084,1526.82C917.218,1526.82 920.574,1530.18 920.574,1534.31L920.574,1604.33C920.574,1608.46 917.218,1611.81 913.084,1611.81L843.073,1611.81C838.939,1611.81 835.583,1608.46 835.583,1604.33L835.583,1534.31C835.583,1530.18 838.939,1526.82 843.073,1526.82Z"/>
                <path d="M843.073,1526.82C843.083,1526.79 849.513,1507.51 852.729,1507.51C855.945,1507.51 862.375,1526.79 862.386,1526.82L893.77,1526.82C893.78,1526.79 900.211,1507.51 903.427,1507.51C906.643,1507.51 913.073,1526.79 913.083,1526.82L913.084,1526.82C917.218,1526.82 920.574,1530.18 920.574,1534.31L920.574,1604.33C920.574,1608.46 917.218,1611.81 913.084,1611.81L843.073,1611.81C838.939,1611.81 835.583,1608.46 835.583,1604.33L835.583,1534.31C835.583,1530.18 838.939,1526.82 843.073,1526.82ZM852.729,1510.72C853.16,1511.3 853.849,1512.28 854.329,1513.19C857.232,1518.69 860.281,1527.86 860.288,1527.88C860.636,1528.92 861.465,1529.61 862.386,1529.61L893.77,1529.61C894.691,1529.61 895.519,1528.92 895.868,1527.88C895.875,1527.86 898.924,1518.69 901.827,1513.19C902.306,1512.28 902.996,1511.3 903.427,1510.72C903.858,1511.3 904.547,1512.28 905.027,1513.19C907.93,1518.69 910.979,1527.86 910.986,1527.88C911.334,1528.92 912.163,1529.61 913.083,1529.61L913.084,1529.61C915.857,1529.61 918.308,1531.54 918.308,1534.31L918.308,1604.33C918.308,1607.1 915.857,1609.03 913.084,1609.03C913.084,1609.03 843.073,1609.03 843.073,1609.03C840.3,1609.03 837.849,1607.1 837.849,1604.33C837.849,1604.33 837.849,1534.31 837.849,1534.31C837.849,1531.54 840.3,1529.61 843.073,1529.61C843.993,1529.61 844.822,1528.92 845.17,1527.88C845.177,1527.86 848.226,1518.69 851.129,1513.19C851.609,1512.28 852.298,1511.3 852.729,1510.72Z" style="fill:rgb(0,255,0);"/>
            </g>
            <g transform="matrix(-0.615242,-0.778603,0.893032,-0.536407,85.5764,2984.74)">
                <path d="M837.421,1517.49L844.117,1529.63L830.384,1527.7" style="fill:none;stroke:rgb(0,255,0);stroke-width:2px;"/>
            </g>
            <g transform="matrix(-0.615242,-0.778603,0.893032,-0.536407,-11.7008,2984.74)">
                <path d="M837.421,1517.49L844.117,1529.63L830.384,1527.7" style="fill:none;stroke:rgb(0,255,0);stroke-width:2px;"/>
            </g>
            <g transform="matrix(-1.08445,-1.15789e-16,1.32807e-16,-0.945492,964.814,1826.29)">
                <path d="M77.5,265C79.667,265 85.083,274.167 84,276C82.917,277.833 72.083,277.833 71,276C69.917,274.167 75.333,265 77.5,265Z" style="fill:rgb(0,255,0);"/>
            </g>
            <g transform="matrix(0.962873,-0.434976,0.498904,0.839494,689.267,1386.4)">
                <ellipse cx="102.956" cy="251.738" rx="16.153" ry="7.738"/>
                <path d="M102.956,244C111.871,244 119.109,247.467 119.109,251.738C119.109,256.008 111.871,259.475 102.956,259.475C94.041,259.475 86.803,256.008 86.803,251.738C86.803,247.467 94.041,244 102.956,244ZM102.956,246C107.851,246 112.206,247.086 114.897,248.844C116.188,249.687 117.109,250.613 117.109,251.738C117.109,252.863 116.188,253.788 114.897,254.632C112.206,256.39 107.851,257.475 102.956,257.475C98.061,257.475 93.706,256.39 91.015,254.632C89.724,253.788 88.803,252.863 88.803,251.738C88.803,250.613 89.724,249.687 91.015,248.844C93.706,247.086 98.061,246 102.956,246Z" style="fill:rgb(0,255,0);"/>
            </g>
            <g transform="matrix(-0.962873,-0.434976,-0.498904,0.839494,1069.22,1386.4)">
                <ellipse cx="102.956" cy="251.738" rx="16.153" ry="7.738"/>
                <path d="M102.956,244C111.871,244 119.109,247.467 119.109,251.738C119.109,256.008 111.871,259.475 102.956,259.475C94.041,259.475 86.803,256.008 86.803,251.738C86.803,247.467 94.041,244 102.956,244ZM102.956,246C98.061,246 93.706,247.086 91.015,248.844C89.724,249.687 88.803,250.613 88.803,251.738C88.803,252.863 89.724,253.788 91.015,254.632C93.706,256.39 98.061,257.475 102.956,257.475C107.851,257.475 112.206,256.39 114.897,254.632C116.188,253.788 117.109,252.863 117.109,251.738C117.109,250.613 116.188,249.687 114.897,248.844C112.206,247.086 107.851,246 102.956,246Z" style="fill:rgb(0,255,0);"/>
            </g>
            <g transform="matrix(1.08445,0,0,0.945492,795.405,1313.83)">
                <path d="M119.109,279.553C122.371,279.595 124.944,282.193 124.944,285.388L124.944,312.165C124.944,315.386 122.329,318 119.109,318L41.076,318C37.856,318 35.242,315.386 35.242,312.165L35.242,285.388C35.242,282.193 37.815,279.595 41.076,279.553L119.109,279.553Z"/>
                <path d="M119.109,279.553C122.371,279.595 124.944,282.193 124.944,285.388L124.944,312.165C124.944,315.386 122.329,318 119.109,318L41.076,318C37.856,318 35.242,315.386 35.242,312.165L35.242,285.388C35.242,282.193 37.815,279.595 41.076,279.553L119.109,279.553ZM119.094,281.553C121.24,281.586 122.944,283.284 122.944,285.388C122.944,285.388 122.944,312.165 122.944,312.165C122.944,314.282 121.226,316 119.109,316L41.076,316C38.96,316 37.242,314.282 37.242,312.165C37.242,312.165 37.242,285.388 37.242,285.388C37.242,283.288 38.939,281.592 41.08,281.553C41.092,281.553 119.094,281.553 119.094,281.553L119.094,281.553Z" style="fill:rgb(0,255,0);"/>
            </g>
            <g transform="matrix(1.08445,0,0,0.945492,795.405,1313.83)">
                <path d="M51.523,289.553L46.076,279.553L56.969,279.553L51.523,289.553Z" style="fill:rgb(0,255,0);"/>
                <path d="M51.523,289.553L46.076,279.553L56.969,279.553L51.523,289.553ZM51.523,285.372L49.443,281.553C49.443,281.553 53.602,281.553 53.602,281.553L51.523,285.372Z" style="fill:rgb(0,255,0);"/>
            </g>
            <g transform="matrix(-0.69485,-7.41908e-17,7.4709e-17,-0.531876,953.893,1737.06)">
                <path d="M58.5,281L67,298.777L50,298.777L58.5,281Z" style="fill:rgb(0,255,0);"/>
                <path d="M58.5,281L67,298.777L50,298.777L58.5,281ZM58.5,288.433L61.746,295.221C61.746,295.221 55.254,295.221 55.254,295.221L58.5,288.433Z" style="fill:rgb(0,255,0);"/>
            </g>
            <g transform="matrix(-0.69485,7.41908e-17,7.4709e-17,0.531876,899.518,1455.58)">
                <path d="M58.5,281L67,298.777L50,298.777L58.5,281Z" style="fill:rgb(0,255,0);"/>
                <path d="M58.5,281L67,298.777L50,298.777L58.5,281ZM58.5,288.433L55.254,295.221C55.254,295.221 61.746,295.221 61.746,295.221L58.5,288.433Z" style="fill:rgb(0,255,0);"/>
            </g>
            <g transform="matrix(-0.69485,7.41908e-17,7.4709e-17,0.531876,946.302,1455.58)">
                <path d="M58.5,281L67,298.777L50,298.777L58.5,281Z" style="fill:rgb(0,255,0);"/>
                <path d="M58.5,281L67,298.777L50,298.777L58.5,281ZM58.5,288.433L55.254,295.221C55.254,295.221 61.746,295.221 61.746,295.221L58.5,288.433Z" style="fill:rgb(0,255,0);"/>
            </g>
        </g>
        <g id="Button-Cat-80x80" serif:id="Button Cat 80x80">
        </g>
    </g>
</svg>
